<svg width="20" height="20" viewBox="0 0 20 20" fill="none" xmlns="http://www.w3.org/2000/svg">
<path d="M3.45632 0.168944C3.81463 0.057062 4.18636 0 4.56062 0C6.35954 0 7.69232 1.58406 7.69231 3.37545L7.69231 7.39378C7.69232 9.18517 6.35954 10.7692 4.56062 10.7692C4.18636 10.7692 3.81462 10.7122 3.45632 10.6003L3.18243 10.5148C3.08891 10.4856 2.9969 10.4532 2.90648 10.4177C4.33345 13.3157 6.68434 15.6666 9.58227 17.0935C9.54683 17.0031 9.51444 16.9111 9.48524 16.8176L9.39971 16.5437C9.28783 16.1854 9.23077 15.8136 9.23077 15.4394C9.23077 13.6405 10.8148 12.3077 12.6062 12.3077H16.6246C18.4159 12.3077 20 13.6405 20 15.4394C20 15.8136 19.9429 16.1854 19.8311 16.5437L19.7455 16.8176C19.2474 18.413 17.8223 19.5685 16.1178 19.8688C15.1253 20.0437 14.1054 20.0437 13.113 19.8688C13.0739 19.862 13.035 19.8546 12.9963 19.8469C6.49205 18.5955 1.40449 13.5079 0.153134 7.00365C0.145365 6.96493 0.138039 6.92604 0.131162 6.88701C-0.043721 5.89456 -0.0437204 4.87467 0.131162 3.88222C0.431528 2.17766 1.58696 0.752652 3.18243 0.254467L3.45632 0.168944Z" fill="white"/>
<path d="M11.2364 1.76792C13.2073 1.20637 15.3535 1.67606 16.8387 3.16131C18.324 4.64656 18.7937 6.79273 18.2321 8.7636C18.1157 9.17217 18.3525 9.59776 18.7611 9.71417C19.1697 9.83059 19.5953 9.59374 19.7117 9.18517C20.4141 6.71973 19.8368 3.9837 17.9266 2.07346C16.0163 0.163211 13.2803 -0.414126 10.8149 0.288346C10.4063 0.404759 10.1694 0.830346 10.2858 1.23892C10.4023 1.64749 10.8278 1.88433 11.2364 1.76792Z" fill="white"/>
<path d="M13.1625 4.56374C13.6815 4.46035 14.3389 4.63467 14.8521 5.14788C15.3654 5.66109 15.5397 6.31852 15.4363 6.83756C15.3533 7.25421 15.6238 7.65925 16.0404 7.74224C16.4571 7.82522 16.8621 7.55474 16.9451 7.13809C17.1573 6.07262 16.785 4.90501 15.94 4.06002C15.095 3.21504 13.9274 2.84269 12.8619 3.05491C12.4453 3.1379 12.1748 3.54294 12.2578 3.95959C12.3408 4.37624 12.7458 4.64672 13.1625 4.56374Z" fill="white"/>
</svg>
