<svg width="22" height="24" viewBox="0 0 22 24" fill="none" xmlns="http://www.w3.org/2000/svg">
<path d="M16.5799 0.557636C12.8948 -0.185879 9.10518 -0.185878 5.42015 0.557636C3.11212 1.02332 1.25471 2.79058 0.617513 5.12719L0.563282 5.32605C-0.187761 8.08012 -0.187761 10.9947 0.563282 13.7488L0.617513 13.9476C1.25471 16.2843 3.11213 18.0515 5.42015 18.5172C6.9706 18.83 8.53958 19.0112 10.1115 19.0608V21.4599H8.0383C7.54758 21.4599 7.14978 21.8705 7.14978 22.377C7.14978 22.8835 7.54758 23.2941 8.0383 23.2941H13.9617C14.4524 23.2941 14.8502 22.8835 14.8502 22.377C14.8502 21.8705 14.4524 21.4599 13.9617 21.4599H11.8885V19.0608C13.4604 19.0112 15.0294 18.83 16.5799 18.5172C18.8879 18.0515 20.7453 16.2842 21.3825 13.9476L21.4367 13.7488C22.1878 10.9947 22.1878 8.08012 21.4367 5.32606L21.3825 5.12719C20.7453 2.79058 18.8879 1.02332 16.5799 0.557636Z" fill="white"/>
</svg>
