<svg width="24" height="22" viewBox="0 0 24 22" fill="none" xmlns="http://www.w3.org/2000/svg">
<path d="M3.07692 5.18095C3.07692 2.31959 5.41882 0 8.30769 0C11.1966 0 13.5385 2.31959 13.5385 5.18095C13.5385 8.04231 11.1966 10.3619 8.30769 10.3619C5.41882 10.3619 3.07692 8.04231 3.07692 5.18095Z" fill="white"/>
<path d="M5.00164 12.7015L5.22084 12.6669C7.2658 12.3436 9.34958 12.3436 11.3945 12.6669L11.6137 12.7015C14.4952 13.157 16.6154 15.6187 16.6154 18.5088C16.6154 20.0688 15.3387 21.3333 13.7637 21.3333H2.85165C1.27673 21.3333 0 20.0688 0 18.5088C0 15.6187 2.12021 13.157 5.00164 12.7015Z" fill="white"/>
<path d="M15.6923 0C15.1825 0 14.7692 0.40934 14.7692 0.914286C14.7692 1.41923 15.1825 1.82857 15.6923 1.82857C17.5616 1.82857 19.0769 3.32948 19.0769 5.18095C19.0769 7.03242 17.5616 8.53333 15.6923 8.53333C15.1825 8.53333 14.7692 8.94267 14.7692 9.44762C14.7692 9.95257 15.1825 10.3619 15.6923 10.3619C18.5812 10.3619 20.9231 8.04231 20.9231 5.18095C20.9231 2.31959 18.5812 0 15.6923 0Z" fill="white"/>
<path d="M17.2199 12.6554C16.7101 12.6554 16.2968 13.0648 16.2968 13.5697C16.2968 14.0747 16.7101 14.484 17.2199 14.484H18.4114C18.5106 14.484 18.6097 14.4918 18.7074 14.5072C20.6929 14.8211 22.1538 16.5174 22.1538 18.5088C22.1538 19.0589 21.7037 19.5048 21.1483 19.5048H18.6337C18.1239 19.5048 17.7106 19.9141 17.7106 20.419C17.7106 20.924 18.1239 21.3333 18.6337 21.3333H21.1483C22.7233 21.3333 24 20.0688 24 18.5088C24 15.6187 21.8798 13.157 18.9984 12.7015C18.8043 12.6708 18.6078 12.6554 18.4114 12.6554H17.2199Z" fill="white"/>
</svg>
