<svg width="24" height="23" viewBox="0 0 24 23" fill="none" xmlns="http://www.w3.org/2000/svg">
<path d="M10.9294 8.42954H11.2335V10.2782L10.7217 10.0929C10.4494 9.9943 10.2107 9.68753 10.2107 9.27964C10.2107 8.74624 10.5939 8.42954 10.9294 8.42954Z" fill="white"/>
<path d="M12.7672 14.3072V12.4587L13.2784 12.6438C13.5508 12.7424 13.7894 13.0492 13.7894 13.4571C13.7894 13.9905 13.4062 14.3072 13.0708 14.3072H12.7672Z" fill="white"/>
<path fill-rule="evenodd" clip-rule="evenodd" d="M8.17158 0.417221C10.6933 -0.139074 13.3067 -0.139074 15.8284 0.417222L16.3559 0.533591C19.8778 1.31052 22.6543 4.00593 23.5238 7.49204C24.1587 10.0376 24.1587 12.6992 23.5238 15.2448C22.6543 18.7309 19.8778 21.4263 16.3559 22.2033L15.8284 22.3196C13.3067 22.8759 10.6933 22.8759 8.17158 22.3196L7.64406 22.2033C4.12222 21.4263 1.34569 18.7309 0.476189 15.2448C-0.15873 12.6992 -0.158729 10.0376 0.476189 7.49203C1.34569 4.00593 4.12223 1.31052 7.64407 0.533592L8.17158 0.417221ZM12.7672 6.27754C12.7672 5.8558 12.4239 5.51391 12.0003 5.51391C11.5768 5.51391 11.2335 5.8558 11.2335 6.27754V6.90228H10.9294C9.62396 6.90228 8.67698 8.03056 8.67698 9.27964C8.67698 10.2609 9.25664 11.1875 10.1975 11.5282L11.2335 11.9033V14.3072H11.148C10.6918 14.3072 10.2107 13.8841 10.2107 13.2196C10.2107 12.7978 9.86737 12.4559 9.44385 12.4559C9.02032 12.4559 8.67698 12.7978 8.67698 13.2196C8.67698 14.5998 9.72184 15.8344 11.148 15.8344H11.2335V16.4593C11.2335 16.881 11.5768 17.2229 12.0003 17.2229C12.4239 17.2229 12.7672 16.881 12.7672 16.4593V15.8344H13.0708C14.3762 15.8344 15.3231 14.7061 15.3231 13.4571C15.3231 12.4758 14.7435 11.5492 13.8026 11.2085L12.7672 10.8336V8.42954H12.8521C13.3083 8.42954 13.7894 8.85257 13.7894 9.51713C13.7894 9.93887 14.1327 10.2808 14.5563 10.2808C14.9798 10.2808 15.3231 9.93887 15.3231 9.51713C15.3231 8.1369 14.2783 6.90228 12.8521 6.90228H12.7672V6.27754Z" fill="white"/>
</svg>
